<?xml version="1.0" encoding="UTF-8"?>
<svg version="1.1" xmlns="http://www.w3.org/2000/svg" width="32" height="26">
<path d="M0 0 C1.2065625 0.0309375 1.2065625 0.0309375 2.4375 0.0625 C3.0975 2.0425 3.7575 4.0225 4.4375 6.0625 C5.4275 5.7325 6.4175 5.4025 7.4375 5.0625 C6.7775 3.4125 6.1175 1.7625 5.4375 0.0625 C7.0875 0.0625 8.7375 0.0625 10.4375 0.0625 C11.0975 2.0425 11.7575 4.0225 12.4375 6.0625 C13.4275 5.7325 14.4175 5.4025 15.4375 5.0625 C14.7775 3.4125 14.1175 1.7625 13.4375 0.0625 C15.0875 0.0625 16.7375 0.0625 18.4375 0.0625 C19.0975 2.0425 19.7575 4.0225 20.4375 6.0625 C21.4275 5.7325 22.4175 5.4025 23.4375 5.0625 C22.7775 3.4125 22.1175 1.7625 21.4375 0.0625 C23.7475 0.0625 26.0575 0.0625 28.4375 0.0625 C28.46636751 4.20831887 28.48425327 8.35411216 28.5 12.5 C28.50837891 13.68400391 28.51675781 14.86800781 28.52539062 16.08789062 C28.52861328 17.21259766 28.53183594 18.33730469 28.53515625 19.49609375 C28.54039307 20.53822021 28.54562988 21.58034668 28.55102539 22.65405273 C28.4375 25.0625 28.4375 25.0625 27.4375 26.0625 C25.23099344 26.16262401 23.02127614 26.1933118 20.8125 26.1953125 C20.15040527 26.19626923 19.48831055 26.19722595 18.80615234 26.19821167 C17.40397039 26.19889326 16.0017853 26.19704042 14.59960938 26.19287109 C12.44654287 26.18752246 10.29368498 26.1928167 8.140625 26.19921875 C6.78124954 26.19855796 5.4218742 26.19727679 4.0625 26.1953125 C2.81726563 26.19418457 1.57203125 26.19305664 0.2890625 26.19189453 C-2.5625 26.0625 -2.5625 26.0625 -3.5625 25.0625 C-3.66196453 23.29390807 -3.69330217 21.52138549 -3.6953125 19.75 C-3.69660156 18.67492187 -3.69789062 17.59984375 -3.69921875 16.4921875 C-3.69341797 14.79449219 -3.69341797 14.79449219 -3.6875 13.0625 C-3.69136719 11.93070313 -3.69523438 10.79890625 -3.69921875 9.6328125 C-3.69792969 8.55773437 -3.69664063 7.48265625 -3.6953125 6.375 C-3.69418457 5.38113281 -3.69305664 4.38726562 -3.69189453 3.36328125 C-3.50820443 0.09706335 -3.29113692 0.08027163 0 0 Z " fill="#FB4646" transform="translate(3.5625,-0.0625)"/>
</svg>
